<?xml version="1.0" encoding="utf-8"?>
<!-- Generator: Adobe Illustrator 21.1.0, SVG Export Plug-In . SVG Version: 6.00 Build 0)  -->
<svg version="1.1" id="Layer_1" xmlns="http://www.w3.org/2000/svg" xmlns:xlink="http://www.w3.org/1999/xlink" x="0px" y="0px"
	 viewBox="0 0 720 720" style="enable-background:new 0 0 720 720;" xml:space="preserve">
<style type="text/css">
	.st0{fill:#DF4C53;}
	.st1{fill:#EEAB39;}
	.st2{fill:#95C15D;}
	.st3{fill:#47A8DE;}
	.st4{fill:#8E459A;}
	.st5{opacity:0.25;fill:url(#SVGID_1_);enable-background:new    ;}
	.st6{fill:url(#SVGID_2_);}
	.st7{fill:url(#SVGID_3_);}
	.st8{fill:#FFFFFF;}
</style>
<path class="st0" d="M267.1,660.7c-1.5,11.4,6.5,21.8,17.9,23.3h2.9c10.6,0.1,19.5-7.8,20.8-18.3L359.4,298l-30-89.4L267.1,660.7z"
	/>
<path class="st1" d="M304,91.1l-78.6,569.6c-1.5,11.4,6.5,21.8,17.9,23.3h2.9c10.6,0.1,19.5-7.8,20.8-18.3l67-485.2L304,91.1z"/>
<path class="st2" d="M163,683.8c-1,0-1.9-0.1-2.9-0.2c-11.4-1.6-19.3-12-17.8-23.4l0,0l83.3-603.7c1.4-11.2,11.6-19.2,22.8-17.9
	c0.2,0,0.4,0.1,0.6,0.1c11.4,1.6,19.3,12.1,17.8,23.4l0,0l-83.3,603.7C182.2,676.1,173.4,683.8,163,683.8z"/>
<path class="st3" d="M121.4,683.8c-1,0-1.9-0.1-2.9-0.2c-11.4-1.6-19.3-12-17.8-23.4l0,0L184,56.4c1.4-11.2,11.6-19.2,22.8-17.9
	c0.2,0,0.4,0.1,0.6,0.1c11.4,1.6,19.3,12.1,17.8,23.4l0,0L142,665.8C140.6,676.1,131.8,683.8,121.4,683.8z"/>
<path class="st4" d="M79.8,683.8c-1,0-1.9-0.1-2.9-0.2c-11.4-1.6-19.3-12-17.8-23.4l0,0l83.3-603.7c1.4-11.2,11.6-19.2,22.8-17.9
	c0.2,0,0.4,0.1,0.6,0.1c11.4,1.6,19.3,12.1,17.8,23.4l0,0l-83.3,603.7C98.9,676.1,90.2,683.8,79.8,683.8z"/>
<linearGradient id="SVGID_1_" gradientUnits="userSpaceOnUse" x1="259.9364" y1="413.4951" x2="277.0941" y2="415.7542" gradientTransform="matrix(1 0 0 1 -0.7 1.8)">
	<stop  offset="0.2684" style="stop-color:#431A17"/>
	<stop  offset="0.7326" style="stop-color:#431A17;stop-opacity:0"/>
</linearGradient>
<path class="st5" d="M307.5,186.5l-11.4-34.4l-70.4,509.7c-0.5,7.2,2.9,14.2,8.9,18.3c3.8-3.4,6.3-7.9,7-13L307.5,186.5z"/>
<linearGradient id="SVGID_2_" gradientUnits="userSpaceOnUse" x1="267.4234" y1="351.4144" x2="356.1756" y2="320.8549" gradientTransform="matrix(1 0 0 1 0 2)">
	<stop  offset="0.2186" style="stop-color:#471227;stop-opacity:0"/>
	<stop  offset="1" style="stop-color:#471227;stop-opacity:0.6"/>
</linearGradient>
<polygon class="st6" points="295.9,150.7 267.9,353.6 327.9,525.5 355,329.2 "/>
<linearGradient id="SVGID_3_" gradientUnits="userSpaceOnUse" x1="207.286" y1="682.3876" x2="286.618" y2="36.2815" gradientTransform="matrix(1 0 0 1 -0.7 1.8)">
	<stop  offset="0.3505" style="stop-color:#F5EB0C"/>
	<stop  offset="0.4094" style="stop-color:#F5EB20"/>
	<stop  offset="0.5369" style="stop-color:#F7EE6B"/>
	<stop  offset="0.7217" style="stop-color:#FCF9D7"/>
	<stop  offset="0.7878" style="stop-color:#FFFFFF"/>
</linearGradient>
<path class="st7" d="M204.7,683.8c-1,0-1.9-0.1-2.9-0.2c-11.4-1.6-19.3-12-17.8-23.4l0,0l83.3-603.7c1.4-11.2,11.6-19.2,22.8-17.9
	c0.2,0,0.4,0.1,0.6,0.1c11.4,1.6,19.3,12.1,17.8,23.4l0,0l-83.3,603.7C223.8,676.1,215.1,683.8,204.7,683.8z"/>
<path class="st8" d="M574,56.8c-1.6-10.1-9.7-18-19.9-19.3c-11.1-0.3-20.7,7.9-22.2,18.9L427.2,415.1L308.1,55.3
	c0.5,2.2,0.7,4.5,0.4,6.8L295,148.4l113.7,343.1c2.8,8.7,11,14.5,20.1,14.3s17.1-6.2,19.6-15L546,157.4l70,507.4
	c1.4,10.3,10.2,18,20.6,18c1,0,1.9-0.1,2.9-0.2c11.4-1.6,19.3-12.1,17.8-23.4l0,0L574,56.8z"/>
</svg>
